<svg xmlns="http://www.w3.org/2000/svg" viewBox="0 0 64 64"><defs><style>.cls-1{isolation:isolate;}.cls-2{fill:#e2e2e2;}.cls-3{fill:#fb0;}.cls-4{fill:none;stroke:#000;stroke-linecap:round;stroke-linejoin:round;stroke-width:2px;}.cls-5{opacity:0.25;mix-blend-mode:multiply;}.cls-6,.cls-7{mix-blend-mode:overlay;}.cls-7{fill:#fff;}</style></defs><title>Icon Color</title><g class="cls-1"><g id="Layer_1" data-name="Layer 1"><g id="Vector"><path class="cls-2" d="M25.54,6.9l-2.08,2a24.89,24.89,0,0,0-9.62,4.57l.51-3L10.62,6.9l5.15-.74,2.31-4.68,2.3,4.68Z"/><polygon class="cls-2" points="40.81 7.49 43.25 12.44 48.71 13.23 44.76 17.08 45.69 22.52 40.81 19.95 35.92 22.52 36.85 17.08 32.9 13.23 38.36 12.44 40.81 7.49"/><polygon class="cls-2" points="52.77 23.5 54.98 27.97 59.9 28.68 56.34 32.16 57.18 37.06 52.77 34.75 48.37 37.06 49.21 32.16 45.65 28.68 50.57 27.97 52.77 23.5"/><path class="cls-2" d="M39.89,57.79l.8,4.73-4.25-2.24-4.25,2.24L33,58.08a25,25,0,0,0,9.8-3.73l.57.08Z"/><path class="cls-3" d="M51.88,43.83a25,25,0,1,1-38-30.34,24.89,24.89,0,0,1,9.62-4.57c.59-.13,1.16-.25,1.76-.34A25.08,25.08,0,0,0,51.88,43.83Z"/></g><g id="Line"><path class="cls-4" d="M25.54,6.9l-2.08,2a24.89,24.89,0,0,0-9.62,4.57l.51-3L10.62,6.9l5.15-.74,2.31-4.68,2.3,4.68Z"/><polygon class="cls-4" points="40.81 7.49 43.25 12.44 48.71 13.23 44.76 17.08 45.69 22.52 40.81 19.95 35.92 22.52 36.85 17.08 32.9 13.23 38.36 12.44 40.81 7.49"/><polygon class="cls-4" points="52.77 23.5 54.98 27.97 59.9 28.68 56.34 32.16 57.18 37.06 52.77 34.75 48.37 37.06 49.21 32.16 45.65 28.68 50.57 27.97 52.77 23.5"/><path class="cls-4" d="M39.89,57.79l.8,4.73-4.25-2.24-4.25,2.24L33,58.08a25,25,0,0,0,9.8-3.73l.57.08Z"/><path class="cls-4" d="M51.88,43.83a25,25,0,1,1-38-30.34,24.89,24.89,0,0,1,9.62-4.57c.59-.13,1.16-.25,1.76-.34A25.08,25.08,0,0,0,51.88,43.83Z"/></g><g id="Shadow" class="cls-5"><path d="M36.44,60.28l1,.55L38,58.08a25,25,0,0,1-3.81.28q-.62,0-1.23,0l-.72,4.19Z"/><polygon points="40.69 62.52 40.4 60.83 38.94 61.6 40.69 62.52"/><path d="M4.1,33.32a25,25,0,0,0,25,25c.83,0,1.64,0,2.45-.13A25.05,25.05,0,0,1,9.1,33.32a34.83,34.83,0,0,1,1.23-7.8A41.92,41.92,0,0,1,17.45,11L17,10.38c.14-.93.27-1.87.41-2.81s.21-1.66.32-2.49c.1-1.2.2-2.4.31-3.6L15.77,6.16l-5.15.74,3.73,3.63-.51,3A25,25,0,0,0,4.1,33.32Z"/></g><g id="Highligth" class="cls-6"><path class="cls-7" d="M48.71,13.23l-5.46-.79-1-2V20.73l3.41,1.79-.93-5.44Z"/><polygon class="cls-7" points="36.32 20.22 35.92 22.52 38.31 21.27 36.32 20.22"/><polygon class="cls-7" points="48.37 37.06 50.27 36.06 48.68 35.23 48.37 37.06"/><path class="cls-7" d="M48,44.13l-1.23,0a25.19,25.19,0,0,1-9,10.25q-1.44,1.71-2.86,3.44l.51,3,1-.55,4.25,2.24-.8-4.73,3.43-3.36-.57-.08a25.17,25.17,0,0,0,9.13-10.52A25.16,25.16,0,0,1,48,44.13Z"/><polygon class="cls-7" points="32.19 62.52 33.94 61.6 32.48 60.83 32.19 62.52"/><path class="cls-7" d="M27.91,58.33l0-.25c-.44.07-.9.11-1.36.15C27,58.28,27.47,58.31,27.91,58.33Z"/><path class="cls-7" d="M20.38,6.16l-2.3-4.68L20.54,6.9,20,9.14c-.08,0-.66-.25-.64-.4s.85-.16.89-.16A25.06,25.06,0,0,0,43,44.13c.82,0,1.63-.05,2.43-.13A25.07,25.07,0,0,1,25.22,8.58c-.6.09-1.17.21-1.76.34l2.08-2Z"/><path class="cls-7" d="M59.9,28.68,55,28l-1.21-2.45v9.75l3.41,1.79-.84-4.9Z"/></g></g></g></svg>